<svg xmlns="http://www.w3.org/2000/svg" width="16" height="16" viewBox="0 0 16 16">
  <path fill="#707070" fill-rule="evenodd" d="M0,4 C0,3.44771525 0.444630861,3 1.00087166,3 L14.9991283,3 C15.5518945,3 16,3.44386482 16,4 C16,4.55228475 15.5553691,5 14.9991283,5 L1.00087166,5 C0.448105505,5 0,4.55613518 0,4 Z M0,8 C0,7.44771525 0.453036308,7 0.997030139,7 L7.00296986,7 C7.5536144,7 8,7.44386482 8,8 C8,8.55228475 7.54696369,9 7.00296986,9 L0.997030139,9 C0.446385598,9 0,8.55613518 0,8 Z M0,12 C0,11.4477153 0.455760956,11 1.00247329,11 L10.9975267,11 C11.5511774,11 12,11.4438648 12,12 C12,12.5522847 11.544239,13 10.9975267,13 L1.00247329,13 C0.448822582,13 0,12.5561352 0,12 Z"/>
</svg>
