<svg height="24" viewBox="0 0 24 24" width="24" xmlns="http://www.w3.org/2000/svg"><path d="m19.5984032 6.34444824.0362419.03939341-8.8518966 12.24524515-.0037424-.0033484c-.0100453.011621-.0169392.0250148-.0273784.0364389-.562144.6111887-1.45873809.6267491-2.04648779.059484l-.00374238.0043333-.02324211-.0283633c-.01339376-.0133937-.02875719-.0228482-.04175702-.0368328-.04825693-.0525902-.08646854-.1112864-.12664982-.1686038l-3.99981008-4.8804498c-.01043926-.0108332-.02284818-.0185149-.0328935-.029939-.54126548-.5993708-.52728082-1.5536762.0317117-2.1311836.55859858-.5775074 1.45026846-.5597804 1.99153394.0397873.05219627.0577114.09474115.1213318.13649817.1851491l3.03979264 3.4829685 8.81841225-10.01419926.029545.03210563c.2970264-.31849574.7750654-.31770787 1.070516.00374237.2954506.32125328.2962385.84124632.0033485 1.1642723" fill="#979797"/></svg>