<svg height="24" viewBox="0 0 24 24" width="24" xmlns="http://www.w3.org/2000/svg"><path d="m13.4142136 12 4.2420243 4.2420243c.3908647.3908647.3938633 1.021583.0006163 1.4148299-.3905242.3905243-1.0215082.3927053-1.4148299-.0006163l-4.2420243-4.2420243-4.24202433 4.2420243c-.3908647.3908647-1.02158296.3938633-1.41482992.0006163-.39052429-.3905242-.39270528-1.0215082.00061636-1.4148299l4.24202429-4.2420243-4.24202429-4.24202433c-.3908647-.3908647-.39386331-1.02158296-.00061636-1.41482992.39052429-.39052429 1.02150828-.39270528 1.41482992.00061636l4.24202433 4.24202429 4.2420243-4.24202429c.3908647-.3908647 1.021583-.39386331 1.4148299-.00061636.3905243.39052429.3927053 1.02150828-.0006163 1.41482992z" fill="#707070" fill-rule="evenodd"/></svg>