<svg height="24" viewBox="0 0 24 24" width="24" xmlns="http://www.w3.org/2000/svg"><path d="m1 0h16c.5522847 0 1 .44771525 1 1s-.4477153 1-1 1h-16c-.55228475 0-1-.44771525-1-1s.44771525-1 1-1zm0 4h16c.5522847 0 1 .44771525 1 1s-.4477153 1-1 1h-16c-.55228475 0-1-.44771525-1-1s.44771525-1 1-1zm0 4h16c.5522847 0 1 .44771525 1 1s-.4477153 1-1 1h-16c-.55228475 0-1-.44771525-1-1s.44771525-1 1-1zm0 4h16c.5522847 0 1 .4477153 1 1s-.4477153 1-1 1h-16c-.55228475 0-1-.4477153-1-1s.44771525-1 1-1z" fill="#8c8c8c" fill-rule="evenodd" transform="translate(3 5)"/></svg>