<svg height="24" viewBox="0 0 24 24" width="24" xmlns="http://www.w3.org/2000/svg"><path d="m18.5 11.75v-1.75h-1.5v1.75h-1.75v1.5h1.75v1.75h1.5v-1.75h1.75v-1.5zm-15.5-6.75h18c.5522847 0 1 .44771525 1 1v12c0 .5522847-.4477153 1-1 1h-18c-.55228475 0-1-.4477153-1-1v-12c0-.55228475.44771525-1 1-1zm.5 1c-.27614237 0-.5.22385763-.5.5v11c0 .2761424.22385763.5.5.5h4c.27614237 0 .5-.2238576.5-.5v-11c0-.27614237-.22385763-.5-.5-.5zm6 0c-.27614237 0-.5.22385763-.5.5v11c0 .2761424.22385763.5.5.5h4c.2761424 0 .5-.2238576.5-.5v-11c0-.27614237-.2238576-.5-.5-.5z" fill="#707070" fill-rule="evenodd"/></svg>