<svg height="24" viewBox="0 0 24 24" width="24" xmlns="http://www.w3.org/2000/svg"><g fill="#979797"><path d="m12.5 16v-12c0-.27614237-.2238576-.5-.5-.5s-.5.22385763-.5.5v12c0 .2761424.2238576.5.5.5s.5-.2238576.5-.5zm-6.5 3.5h12c.2761424 0 .5-.2238576.5-.5s-.2238576-.5-.5-.5h-12c-.27614237 0-.5.2238576-.5.5s.22385763.5.5.5z"/><path d="m12 4.70710678 3.6464466 3.64644661c.1952622.19526215.5118446.19526215.7071068 0 .1952621-.19526215.1952621-.51184463 0-.70710678l-4-4c-.1952622-.19526215-.5118446-.19526215-.7071068 0l-3.99999999 4c-.19526215.19526215-.19526215.51184463 0 .70710678s.51184463.19526215.70710678 0z"/></g></svg>