<svg height="24" viewBox="0 0 24 24" width="24" xmlns="http://www.w3.org/2000/svg"><path d="m2 7c0-.55228475.45530558-1 .99180311-1h18.01639379c.5477577 0 .9918031.44386482.9918031 1 0 .55228475-.4553056 1-.9918031 1h-18.01639379c-.54775773 0-.99180311-.44386482-.99180311-1zm0 5c0-.5522847.4556644-1 .99539757-1h8.00920483c.5497429 0 .9953976.4438648.9953976 1 0 .5522847-.4556644 1-.9953976 1h-8.00920483c-.5497429 0-.99539757-.4438648-.99539757-1zm0 5c0-.5522847.44892021-1 1.00748397-1h12.98503203c.5564181 0 1.007484.4438648 1.007484 1 0 .5522847-.4489202 1-1.007484 1h-12.98503203c-.55641803 0-1.00748397-.4438648-1.00748397-1z" fill="#8c8c8c" fill-rule="evenodd"/></svg>