<svg height="16" viewBox="0 0 16 16" width="16" xmlns="http://www.w3.org/2000/svg"><g fill="#979797" fill-rule="evenodd"><path d="m3 5.5c0-.27614237.22765279-.5.50964952-.5h8.98070098c.2814716 0 .5096495.23193359.5096495.5 0 .27614237-.2276528.5-.5096495.5h-8.98070098c-.28147166 0-.50964952-.23193359-.50964952-.5z"/><path d="m5 8.5c0-.27614237.22788048-.5.49100518-.5h5.01798962c.2711747 0 .4910052.23193359.4910052.5 0 .27614237-.2278805.5-.4910052.5h-5.01798962c-.27117467 0-.49100518-.23193359-.49100518-.5z"/><path d="m7 11.5c0-.2761424.21403503-.5.50468445-.5h.9906311c.27872953 0 .50468445.2319336.50468445.5 0 .2761424-.21403503.5-.50468445.5h-.9906311c-.27872953 0-.50468445-.2319336-.50468445-.5z"/></g></svg>