<svg height="24" viewBox="0 0 24 24" width="24" xmlns="http://www.w3.org/2000/svg"><path d="m12 21c-4.97056275 0-9-4.0294373-9-9 0-4.97056275 4.02943725-9 9-9 4.9705627 0 9 4.02943725 9 9 0 4.9705627-4.0294373 9-9 9zm-3-8.5c0 .2680664.21983051.5.49100518.5h5.01798962c.2631247 0 .4910052-.2238576.4910052-.5 0-.2680664-.2198305-.5-.4910052-.5h-5.01798962c-.2631247 0-.49100518.2238576-.49100518.5zm-2-3c0 .26806641.22817786.5.50964952.5h8.98070098c.2819967 0 .5096495-.22385763.5096495-.5 0-.26806641-.2281779-.5-.5096495-.5h-8.98070098c-.28199673 0-.50964952.22385763-.50964952.5zm4 6c0 .2680664.2259549.5.5046844.5h.9906312c.2906494 0 .5046844-.2238576.5046844-.5 0-.2680664-.2259549-.5-.5046844-.5h-.9906312c-.2906494 0-.5046844.2238576-.5046844.5z" fill="#979797" fill-rule="evenodd"/></svg>