<svg height="24" viewBox="0 0 24 24" width="24" xmlns="http://www.w3.org/2000/svg"><path d="m4 8.5c0-.27614237.22618103-.5.4963932-.5h15.0072136c.2741504 0 .4963932.23193359.4963932.5 0 .27614237-.226181.5-.4963932.5h-15.0072136c-.27415039 0-.4963932-.23193359-.4963932-.5zm0 4c0-.2761424.22618103-.5.4963932-.5h15.0072136c.2741504 0 .4963932.2319336.4963932.5 0 .2761424-.226181.5-.4963932.5h-15.0072136c-.27415039 0-.4963932-.2319336-.4963932-.5zm0 4c0-.2761424.22618103-.5.4963932-.5h15.0072136c.2741504 0 .4963932.2319336.4963932.5 0 .2761424-.226181.5-.4963932.5h-15.0072136c-.27415039 0-.4963932-.2319336-.4963932-.5z" fill="#8c8c8c" fill-rule="evenodd"/></svg>