<svg height="24" viewBox="0 0 24 24" width="24" xmlns="http://www.w3.org/2000/svg"><g fill="#979797"><path d="m12.5 16c0 .2761424-.2238576.5-.5.5s-.5-.2238576-.5-.5v-12c0-.27614237.2238576-.5.5-.5s.5.22385763.5.5zm-6.5 3.5c-.27614237 0-.5-.2238576-.5-.5s.22385763-.5.5-.5h12c.2761424 0 .5.2238576.5.5s-.2238576.5-.5.5z"/><path d="m8.35355339 11.6464466c-.19526215-.1952621-.51184463-.1952621-.70710678 0-.19526215.1952622-.19526215.5118446 0 .7071068l3.99999999 4c.1952622.1952621.5118446.1952621.7071068 0l4-4c.1952621-.1952622.1952621-.5118446 0-.7071068-.1952622-.1952621-.5118446-.1952621-.7071068 0l-3.6464466 3.6464466z"/></g></svg>