<svg height="24" viewBox="0 0 24 24" width="24" xmlns="http://www.w3.org/2000/svg"><path d="m12.8388348 19.9099026-8.54594158-8.5459416c-.18753638-.1875363-.29289322-.4418903-.29289322-.7071068v-5.6568542c0-.55228475.44771525-1 1-1h5.6568542c.2652165 0 .5195705.10535684.7071068.29289322l8.5459416 8.54594158c.1952621.1952621.1952621.5118446 0 .7071067l-6.3639611 6.3639611c-.1952621.1952621-.5118446.1952621-.7071067 0zm-3.27817463-10.34924243c.58578643-.58578644.58578643-1.5355339 0-2.12132034-.58578644-.58578644-1.5355339-.58578644-2.12132034 0s-.58578644 1.5355339 0 2.12132034c.58578644.58578643 1.5355339.58578643 2.12132034 0z" fill="#707070"/></svg>