<svg height="24" viewBox="0 0 24 24" width="24" xmlns="http://www.w3.org/2000/svg"><path d="m20 11.5c.2761424 0 .5.2238576.5.5s-.2238576.5-.5.5l-13.12973854.8206087 3.82077834 3.8573439c.4130059.4166507.4119442 1.0929067-.0031851 1.5106257-.4151293.4166506-1.08719281.414514-1.50126039-.0021367l-5.1395662-5.1893809-.04702811.0029393v-.0504232l-.68998017-.6966677c-.20597208-.2083253-.31001983-.4807508-.31001983-.7542445 0-.2734938.10404775-.5459192.31001983-.7542445l.68998017-.696795v-.0476251l.04441079.0027757 5.13793667-5.18868316c.41406758-.41771898 1.08613114-.41878731 1.50126044-.003205s.4172527 1.09290669.0031851 1.51169401l-3.81928022 3.85663795z" fill="#8c8c8c" fill-rule="evenodd"/></svg>