<svg height="24" viewBox="0 0 24 24" width="24" xmlns="http://www.w3.org/2000/svg"><g fill="#979797" fill-rule="evenodd"><path d="m16.1568542 7h-2.6568542c-.2761424 0-.5-.22385763-.5-.5 0-.27614237.2238576-.5.5-.5h4c.1380712 0 .2630712.05596441.3535534.14644661s.1464466.2154822.1464466.35355339v4c0 .2761424-.2238576.5-.5.5s-.5-.2238576-.5-.5v-2.92893219l-6.1464466 6.14644659c-.1952622.1952622-.5118446.1952622-.7071068 0-.19526214-.1952621-.19526214-.5118446 0-.7071068z"/><path d="m14 8h-2v.5.5h2c.552 0 1 .448 1 1v6c0 .552-.448 1-1 1h-6c-.552 0-1-.448-1-1v-2h-.5-.5v2c0 1.105.895 2 2 2h6c1.105 0 2-.895 2-2v-6c0-1.105-.895-2-2-2" transform="matrix(0 1 -1 0 24 2)"/><path d="m10.5 8.5c0-.276-.224-.5-.5-.5s-.5.224-.5.5.224.5.5.5.5-.224.5-.5m5 5c-.276 0-.5.224-.5.5s.224.5.5.5.5-.224.5-.5-.224-.5-.5-.5"/></g></svg>