<svg height="24" viewBox="0 0 24 24" width="24" xmlns="http://www.w3.org/2000/svg"><g fill="#979797"><path d="m14.1464466 14.3535534 5.5178344 5.5178344c.1952622.1952622.5118447.1952622.7071068 0 .1952622-.1952621.1952622-.5118446 0-.7071068l-5.5178344-5.5178344c-.1952622-.1952621-.5118446-.1952621-.7071068 0-.1952621.1952622-.1952621.5118446 0 .7071068z"/><path d="m10 15c2.7614237 0 5-2.2385763 5-5 0-2.76142375-2.2385763-5-5-5-2.76142375 0-5 2.23857625-5 5 0 2.7614237 2.23857625 5 5 5zm0 1c-3.3137085 0-6-2.6862915-6-6s2.6862915-6 6-6 6 2.6862915 6 6-2.6862915 6-6 6z"/></g></svg>