<svg height="24" viewBox="0 0 24 24" width="24" xmlns="http://www.w3.org/2000/svg"><path d="m11.8738492 7.98646825c-2.14623015 0-3.88623015 1.74-3.88623015 3.88738095 0 2.1462302 1.74 3.8862302 3.88623015 3.8862302 2.1462302 0 3.887381-1.74 3.887381-3.8862302 0-2.14738095-1.7411508-3.88738095-3.887381-3.88738095zm7.3340079 5.62047615c-.3360317.1162302-.6904761.4315477-.7871428.6985318s-.2946032 1.1956746-.1369445 1.5144444l.4234921 1.2532143c.0874603.3452381-.0471825.8331746-.2992063 1.0851984l-.2497223.2497223c-.2520238.2520238-.7399603.384365-1.0840476.2957539l-1.2497619-.4246428c-.3199206-.1553572-.7894444-.1806746-1.042619-.0552381-.2543254.1254365-1.0587302.6478968-1.1749604.9839285l-.5788492 1.171508c-.1806746.3072619-.6202777.5581349-.975873.5581349h-.3532936c-.3567461 0-.7963492-.250873-.9770238-.5569841l-.5823016-1.1761111c-.1150794-.3371826-.43154764-.6893254-.70083336-.7836905-.27043651-.0955159-1.20142857-.2934524-1.52134921-.1369445l-1.24055555.4200397c-.3452381.0886111-.8331746-.0437301-1.08519841-.2957539l-.24972223-.2497223c-.25087301-.2520238-.38436507-.7399603-.29690476-1.0851984l.42234127-1.2474603c.15650794-.3199206.18527778-.7894444.06444445-1.042619-.12083334-.2543254-.63869048-1.0564286-.97587302-1.171508l-1.18531746-.5846032c-.3072619-.1806746-.55813492-.6191269-.55813492-.975873v-.3532936c0-.3555953.25087302-.7951984.55813492-.975873l1.18992064-.5880556c.33603174-.1150794.69047619-.42464285.78714285-.6881746.09551588-.26353174.28884921-1.18301587.13234127-1.5029365l-.43154762-1.26702381c-.0897619-.3452381.04142857-.83202381.29345238-1.08404762l.24972223-.24972223c.25202381-.25202381.73996031-.38436507 1.08519841-.29575396l1.2693254.43154762c.31992063.15650793.78484127.18527777 1.0322619.06214285.24972222-.12313492 1.03916662-.64329365 1.15309522-.98047619l.5892064-1.18992063c.1818254-.30726191.6214285-.55698413.9781746-.55698413h.3532936c.3555953 0 .7951984.25087302.975873.55698413l.5834524 1.18761904c.117381.33603175.4315476.68702381.6996826.77908731.2669841.09321428 1.193373.28539682 1.5132936.12888889l1.2486111-.42234127c.3452381-.08746032.8331746.04718253 1.0851984.29920634l.2497223.24972223c.2520238.25202381.3855158.73996031.2969047 1.08404762l-.4211905 1.24170634c-.1553571.32107143-.1818254.79059524-.0598412 1.04607143.1219841.2543254.6432936 1.05757934.9804762 1.17265874l1.1772619.5834524c.3061111.1818254.5558333.6225793.5558333.9781746v.3532936c0 .3567461-.250873.7963492-.5569841.9770238z" fill="#8c8c8c" fill-rule="evenodd"/></svg>