<svg height="24" viewBox="0 0 24 24" width="24" xmlns="http://www.w3.org/2000/svg"><g fill="#979797" fill-rule="evenodd"><path d="m11.25 16-.25-12h2l-.25 12c0 .4142136-.3357864.75-.75.75s-.75-.3357864-.75-.75zm3.75 4h-6c-1.657 0-3-1.343-3-3v-3c0-1.588 1.2375-2.874 2.7985-2.9795.065-.0135.1325-.0205.2015-.0205.5525 0 1 .4475 1 1s-.4475 1-1 1-1 .4475-1 1v3c0 .5525.4475 1 1 1h6c.5525 0 1-.4475 1-1v-3c0-.5525-.4475-1-1-1s-1-.4475-1-1 .4475-1 1-1c.069 0 .1365.007.2015.0205 1.561.1055 2.7985 1.3915 2.7985 2.9795v3c0 1.657-1.343 3-3 3z"/><path d="m15.2884986 8.7026847c.3880821.39295136 1.0212347.39689872 1.4141861.00881668.3929514-.38808205.3968987-1.02123472.0088167-1.41418608l-3.9750622-4.02493781c-.389794-.39468476-1.0263612-.39666906-1.4186082-.00442208l-4.02493778 4.02493781c-.39052429.39052429-.39052429 1.02368927 0 1.41421356s1.02368927.39052429 1.41421356 0l3.31340882-3.31340886z" fill-rule="nonzero"/></g></svg>