<svg height="24" viewBox="0 0 24 24" width="24" xmlns="http://www.w3.org/2000/svg"><path d="m6.33411078 11.8555545c1.24251751 1.2425175 3.15143996 1.4910149 4.66457762.6438486l.4284949-.2399032.3175349.3746106 4.508086 5.321517c.470062.4700619 1.231957.4700619 1.702019 0 .4700619-.470062.4700619-1.231957.0360714-1.6687996l-5.7321136-4.8587679.2397526-.4284509c.8472177-1.514024.5987995-3.42211112-.6439555-4.66486618-.8641647-.86487074-2.06121859-1.26020063-3.24346409-1.11199962l.90557595.90557607c1.04125504 1.04246864.90955974 2.77260646-.30494209 3.64751927-.95705325.68851046-2.30227358.52271506-3.151977-.3269884l-.83688659-.83688766c-.14819899 1.1830249.24661137 2.37897682 1.1112265 3.24359192zm-.84312807.8431281c-1.21597003-1.2159701-1.72064333-2.93618268-1.3935975-4.59237632.1617506-.82135732 1.18185706-1.12214821 1.77233524-.53376259l1.03317849 1.03317848c.45056126.45056127 1.14783744.53649904 1.61221093.2024258.61590355-.44368974.68203643-1.31250561.15820657-1.83694613l-1.10067708-1.10067708c-.58913181-.58913181-.28932955-1.60921849.53286261-1.77323522 1.65604648-.32701677 3.37730943.17843786 4.59237633 1.39449748 1.5033851 1.50338519 1.8923486 3.75177451 1.0621794 5.64590478l5.0378935 4.2727887c.9357088.9357087.9357088 2.4525663 0 3.388275-.9357087.9357088-2.4525663.9357088-3.4214944-.0360715l-4.239649-5.0017103c-1.89352892.8300553-4.14255934.4409746-5.64582509-1.0622911z" fill="#979797"/></svg>