<svg xmlns="http://www.w3.org/2000/svg" width="24" height="24" viewBox="0 0 24 24">
  <path fill="#8C8C8C" fill-rule="evenodd" d="M12,12 L6.49374104,12 C6.22563934,12 6,12.2238576 6,12.5 C6,12.7680664 6.22105539,13 6.49374104,13 L12,13 L12,18.506259 C12,18.7743607 12.2238576,19 12.5,19 C12.7680664,19 13,18.7789446 13,18.506259 L13,13 L18.506259,13 C18.7743607,13 19,12.7761424 19,12.5 C19,12.2319336 18.7789446,12 18.506259,12 L13,12 L13,6.49374104 C13,6.22563934 12.7761424,6 12.5,6 C12.2319336,6 12,6.22105539 12,6.49374104 L12,12 Z" transform="rotate(45 12.5 12.5)"/>
</svg>
