<svg height="24" viewBox="0 0 24 24" width="24" xmlns="http://www.w3.org/2000/svg"><path d="m16.4420827 19.0201536c-.5417568.5785895-1.7972375.9713083-2.9214866.9898466h-.1234259c-3.77693066 0-4.59724955-2.7768392-4.59724955-4.3977191v-4.5030946h-1.48794091c-.08274217 0-.16209544-.0328692-.22060299-.0913767-.05850755-.0585076-.09137675-.1378609-.09137675-.220603v-2.1265359c.00014742-.22429941.14152406-.42420031.3529591-.49907002 1.93895775-.68298927 2.54706212-2.37509518 2.63707035-3.66131033.02439245-.34368995.20416505-.51029055.50248495-.51029055h2.2177637c.1723017 0 .3119798.13967809.3119798.31197974v3.60154877h2.596091c.1720165-.00013534.3116857.1389883.3122236.31100404v2.55559945c-.0000646.0827422-.0329959.1620698-.0915492.2205316s-.1379323.091269-.2206744.0912043h-2.6080433v4.164527c0 1.0457054.6890874 1.3342683 1.114736 1.3342683.40833-.0097569.810318-.1341586 1.0117998-.2151416.1495259-.0600055.2810013-.0997652.3985731-.0702503.1095222.0273196.18148.1048876.230021.246364l.6881117 2.0099398c.0558587.1609904.1039119.3353965-.0114645.4585785z" fill="#8c8c8c"/></svg>