<svg height="24" viewBox="0 0 24 24" width="24" xmlns="http://www.w3.org/2000/svg"><path d="m19.1169495 20.0936912h-14.23389899c-.48780597 0-.88305051-.3977369-.88305051-.8882147v-14.31720147c0-.49065874.39524454-.88827503.88305051-.88827503h14.23389899c.4876261 0 .8830505.39761629.8830505.88827503v14.31720147c0 .4904778-.3954244.8882147-.8830505.8882147zm-4.0772415 0v-6.2322766h2.0798148l.3113757-2.4288723h-2.3911905v-1.55072765c0-.70321522.1941153-1.18247732 1.1967043-1.18247732l1.2787147-.0005427v-2.17235736c-.2212122-.02954686-.980228-.09569564-1.8632785-.09569564-1.8436152 0-3.105724 1.13188586-3.105724 3.21059778v1.79120289h-2.0850903v2.4288723h2.0850903v6.2322766z" fill="#8c8c8c" fill-rule="evenodd"/></svg>