<svg height="24" viewBox="0 0 24 24" width="24" xmlns="http://www.w3.org/2000/svg"><path d="m8.660856 19.628744c6.792696 0 10.507392-5.627592 10.507392-10.507392 0-.159912-.00324-.319032-.010584-.477432.721008-.521208 1.34784-1.171584 1.842336-1.912104-.661752.293976-1.373832.492048-2.120832.5814.762408-.457128 1.34784-1.180584 1.623888-2.042856-.713664.423-1.50372.730728-2.344896.8964-.67392-.71784-1.633608-1.16676-2.69568-1.16676-2.039544 0-3.693528 1.653912-3.693528 3.692664 0 .289872.032472.57168.095832.84204-3.069144-.154296-5.790816-1.623888-7.611984-3.858408-.317448.545616-.500184 1.179792-.500184 1.85616 0 1.28124.652032 2.412288 1.6434 3.073968-.605736-.018648-1.174896-.185112-1.672632-.461952-.000792.015408-.000792.030816-.000792.047016 0 1.788768 1.273176 3.281904 2.9628 3.62052-.310176.084384-.636552.129888-.973512.129888-.237888 0-.469296-.023544-.694224-.0666.470088 1.467216 1.833408 2.534904 3.449952 2.565-1.264176.990504-2.856384 1.580832-4.586688 1.580832-.297936 0-.591912-.017064-.88092-.051192 1.6344 1.047456 3.574944 1.658808 5.660856 1.658808" fill="#8c8c8c" fill-rule="evenodd"/></svg>