<svg height="24" viewBox="0 0 24 24" width="24" xmlns="http://www.w3.org/2000/svg"><g fill="#8c8c8c" fill-rule="evenodd" transform="translate(4 4)"><path d="m8 1.44352381c2.1354286 0 2.3883492.00812698 3.2316508.04660317.779746.03558731 1.2032063.16587302 1.4850476.27536508.3732699.14507937.6397143.3184127.9195556.59825397.2798412.27984127.4531746.54628572.5982222.91955556.1095238.28184127.2398095.70530158.2753968 1.48501587.0384762.84333333.0466032 1.09625397.0466032 3.23168254 0 2.1354286-.008127 2.3883492-.0466032 3.2316508-.0355873.779746-.165873 1.2032063-.2753968 1.4850476-.1450476.3732699-.318381.6397143-.5982222.9195556-.2798413.2798412-.5462857.4531746-.9195556.5982222-.2818413.1095238-.7053016.2398095-1.4850476.2753968-.8431746.0384762-1.0960952.0466032-3.2316508.0466032-2.13555556 0-2.38847619-.008127-3.23165079-.0466032-.77974604-.0355873-1.20320635-.165873-1.48501588-.2753968-.37330158-.1450476-.63974603-.318381-.9195873-.5982222-.27984127-.2798413-.4531746-.5462857-.59822222-.9195556-.10952381-.2818413-.23980952-.7053016-.27539683-1.4850159-.03847619-.8433333-.04660317-1.0962539-.04660317-3.2316825 0-2.13542857.00812698-2.38834921.04660317-3.23165079.03558731-.77974604.16587302-1.20320635.27539683-1.48504762.14504762-.37326984.31838095-.63971429.59822222-.91955556s.54628572-.4531746.9195873-.59825397c.28180953-.10949206.70526984-.23977777 1.48498413-.27536508.84333333-.03847619 1.09625397-.04660317 3.23168254-.04660317m0-1.44101587c-2.172 0-2.44431746.00920635-3.29733333.04812698-.85126984.03885714-1.43260318.17403175-1.94133334.37174603-.52590476.20438095-.97190476.47784127-1.41650793.92244445-.44460318.44460317-.7180635.89060317-.92244445 1.41650793-.19771428.50873016-.33288889 1.0900635-.37174603 1.94133334-.03892063.85298412-.04809524 1.12533333-.04809524 3.29733333s.00917461 2.4443492.04809524 3.2973333c.03885714.8512699.17403175 1.4326032.37174603 1.9413334.20438095.525873.47784127.9719047.92244445 1.4165079.44460317.4446032.89060317.7180635 1.41650793.9224444.50873016.1977143 1.0900635.3328889 1.94133334.3717461.85301587.0389206 1.12533333.0480952 3.29733333.0480952s2.4443492-.0091746 3.2973333-.0480952c.8512699-.0388572 1.4326032-.1740318 1.9413334-.3717461.5259047-.2043809.9719047-.4778412 1.4165079-.9224444s.7180635-.8906032.9224444-1.4165079c.1977143-.5087302.3328889-1.0900635.3717461-1.9413334.0389206-.8529841.048127-1.1253333.048127-3.2973333s-.0092064-2.44434921-.048127-3.29733333c-.0388572-.85126984-.1740318-1.43260318-.3717461-1.94133334-.2043809-.52590476-.4778412-.97190476-.9224444-1.41650793-.4446032-.44460318-.8906032-.7180635-1.4165079-.92244445-.5087302-.19771428-1.0900635-.33288889-1.9413334-.37174603-.8529841-.03892063-1.1253333-.04812698-3.2973333-.04812698"/><path d="m8 3.8931746c-2.26812698 0-4.1068254 1.83869842-4.1068254 4.1068254 0 2.268127 1.83869842 4.1068254 4.1068254 4.1068254 2.268127 0 4.1068254-1.8386984 4.1068254-4.1068254 0-2.26812698-1.8386984-4.1068254-4.1068254-4.1068254zm0 6.7726667c-1.47228571 0-2.66584127-1.19355559-2.66584127-2.6658413s1.19355556-2.66584127 2.66584127-2.66584127 2.6658413 1.19355556 2.6658413 2.66584127-1.19355559 2.6658413-2.6658413 2.6658413zm5.2287619-6.93492067c0 .53003175-.4296508.95971429-.9596825.95971429-.5300318 0-.9597143-.42968254-.9597143-.95971429 0-.53003174.4296825-.95968253.9597143-.95968253.5300317 0 .9596825.42965079.9596825.95968253"/></g></svg>