<svg height="24" viewBox="0 0 24 24" width="24" xmlns="http://www.w3.org/2000/svg"><path d="m9.27147391 9.300825c-.0017.0051-.0034.0102-.0051.01445zm-1.4535 4.6223c-.0017.00425-.00255.00935-.00425.0136zm8.23224999.4046-.00255.00255c.00085-.00085.0017-.0017.00255-.00255zm-8.09794999.0017c.00085.00085.0017.00085.00255.0017zm4.30014999 2.8492-.00765.0051c.00255-.0017.0051-.00255.00765-.0051zm-.2533-1.1849c.17085 0 .3417.04675.48025.1411l3.7774 2.6843-1.3005-4.54325c-.09265-.33405.03655-.73865.3009-.9469l3.6499-2.89-4.59595-.1258c-.32895-.0085-.67405-.2669-.7854-.58735l-1.52405-4.45315-1.52745 4.4523c-.10795.3196-.45475.58055-.78794999.5882l-4.59085.1224 3.64905 2.8951c.26265.20655.39355.62475.29665.9503l-1.3022 4.53645 3.77059999-2.67495c.1377-.09945.3128-.14875.4896-.14875zm-4.50924999 4.2942c-.25585 0-.48195-.08755-.64855-.20825-.31535-.22185-.5933-.6953-.40545-1.34215l1.31155-4.57045-3.65415-2.8934c-.52105-.41395-.57205-.95625-.4471-1.32515.1224-.36635.48875-.765 1.14495-.7803l4.56705-.12155 1.52999999-4.471c.2176-.63665.71655-.8636 1.11095-.8636.39525 0 .8942.22695 1.1118.8636l1.53 4.471 4.5713.12155c.6511.01445 1.01745.4131 1.1424.7803.1241.37145.0714.91205-.44625 1.3243l-3.6567 2.8951 1.31325 4.5713c.18785.64345-.08925 1.1169-.4114 1.3447-.391.27965-.94435.2686-1.39655-.05525l-3.757-2.6707-3.75869999 2.67155c-.2601.18615-.51765.2584-.7514.2584z" fill="#979797" fill-rule="evenodd"/></svg>