<svg height="24" viewBox="0 0 24 24" width="24" xmlns="http://www.w3.org/2000/svg"><path d="m16.9390596 20.203454c-.1162292 0-.2579102-.0373291-.419104-.1535583l-4.3725958-3.1076481c-.0610839-.041571-.2027649-.0424194-.2630005.0008484l-4.37259569 3.1076481c-.35971684.2570618-.62186897.1272583-.71688851.0585388-.09671632-.0678711-.30796512-.274878-.18240358-.7084046l1.50843523-5.2540717c.02545166-.0848389-.02205811-.2417908-.08823243-.2935425l-4.21309863-3.3350163c-.34868779-.2774231-.29778446-.56672366-.26045535-.67786259.0373291-.11113893.17137453-.36904911.60659797-.37922978l5.30752014-.14083253c.06956788-.00169678.19173586-.08908082.21973269-.17222292l1.76804216-5.16838439c.1459229-.42589116.4369203-.47170415.5548463-.47170415s.4089234.04581299.5548462.47170415l1.7680422 5.167536c.0288453.08399049.1510132.17137453.218036.17307131l5.3109137.14083253c.4352234.01018067.5684204.26809085.6057495.37922978s.0882325.40043949-.2604553.67701429l-4.2122503 3.3358646c-.0661743.0517517-.1136841.209552-.0899292.2943909l1.5092837 5.2540716c.1264099.4326783-.0856873.6396852-.1815552.7075563-.0534485.0381775-.156952.0941711-.2994813.0941711" fill="#8c8c8c" fill-rule="evenodd"/></svg>