<svg height="16" viewBox="0 0 16 16" width="16" xmlns="http://www.w3.org/2000/svg"><path d="m12.6420938 15.7435182c-.1096022 0-.2432049-.0352007-.395208-.1448029l-4.1232833-2.9304592c-.05760117-.0392008-.19120387-.0400009-.24800501.0008l-4.12328335 2.9304592c-.33920685.2424049-.58641185.1200024-.67601366.0552011-.09120184-.0640013-.29040587-.2592052-.17200348-.6680135l1.42242875-4.9545001c.02400049-.08000164-.02080042-.22800463-.08320168-.27680562l-3.9728803-3.14486356c-.32880665-.26160529-.28080568-.53441081-.24560496-.63921292.03520071-.10480212.16160326-.34800704.57201156-.35760723l5.00490116-.13280269c.06560133-.00160003.18080365-.08400169.20720419-.16240328l1.6672337-4.87369851c.13760278-.40160812.41200832-.44480899.52321057-.44480899s.3856078.04320087.52321058.44480899l1.66723373 4.87289849c.0272005.07920161.1424028.16160327.2056041.1632033l5.0081012.13280269c.4104083.00960019.5360109.25280511.5712116.35760723.0352007.10480211.0832017.37760763-.245605.6384129l-3.9720803 3.14566358c-.0624012.04880099-.1072021.197604-.0848017.27760562l1.4232288 4.9545001c.1192024.4080083-.0808016.6032122-.1712035.6672135-.050401.0360007-.148003.0888018-.2824057.0888018" fill="#707070" fill-rule="evenodd"/></svg>