<svg height="24" viewBox="0 0 24 24" width="24" xmlns="http://www.w3.org/2000/svg"><path d="m2.5 8h3c.27614237 0 .5.22385763.5.5v10c0 .2761424-.22385763.5-.5.5h-3c-.27614237 0-.5-.2238576-.5-.5v-10c0-.27614237.22385763-.5.5-.5zm0-3h3c.27614237 0 .5.22385763.5.5v1c0 .27614237-.22385763.5-.5.5h-3c-.27614237 0-.5-.22385763-.5-.5v-1c0-.27614237.22385763-.5.5-.5zm5 0h14c.2761424 0 .5.22385763.5.5v13c0 .2761424-.2238576.5-.5.5h-14c-.27614237 0-.5-.2238576-.5-.5v-13c0-.27614237.22385763-.5.5-.5z" fill="#8c8c8c" fill-rule="evenodd"/></svg>