<svg height="24" viewBox="0 0 24 24" width="24" xmlns="http://www.w3.org/2000/svg"><path d="m4.09588567 8.0542558c.07749881-.39353292.572686-.53745928.85651281-.25463895l1.15543678 1.15543679c.70856054.70856054 1.84990664.88167476 2.66414737.29590454 1.03667238-.7468067 1.12222301-2.20217394.25866486-3.06673858l-1.23092264-1.23092264c-.28382681-.28382681-.13990045-.779014.25363246-.85751929 1.5902353-.31402115 3.30326089.14392636 4.53518999 1.37686196 1.629488 1.62948794 1.90325 4.09636561.8303444 6.01370627l5.9915638 5.0786882c.7860593.7860593.7860593 2.0602605 0 2.8463199-.7860594.7860593-2.0602606.7860593-2.8463199 0l-5.0786882-5.9915638c-1.91633416 1.0729056-4.38421831.7991436-6.01370626-.8303444-1.23293559-1.2329356-1.68987662-2.94495471-1.37585547-4.53519z" fill="#979797" fill-rule="evenodd"/></svg>